<?xml version="1.0" encoding="iso-8859-1"?>
<!-- Generator: Adobe Illustrator 19.0.0, SVG Export Plug-In . SVG Version: 6.00 Build 0)  -->
<svg version="1.1" id="Capa_1" xmlns="http://www.w3.org/2000/svg" xmlns:xlink="http://www.w3.org/1999/xlink" x="0px" y="0px"
	 viewBox="0 0 512 512" style="enable-background:new 0 0 512 512;" xml:space="preserve">
<polygon style="fill:#FFB037;" points="0,368.5 60,368.5 60,308.5 128.553,308.5 128.553,248.5 60,248.5 60,203.5 128.553,203.5 
	128.553,143.5 0,143.5 "/>
<g>
	<polygon style="fill:#FF9037;" points="448.343,255.945 511.869,143.5 443.08,143.5 413.914,195.07 384.748,143.5 315.959,143.5 
		379.485,255.945 315.828,368.5 384.755,368.5 413.914,316.886 443.074,368.5 512,368.5 	"/>
	<path style="fill:#FF9037;" d="M239.106,143.5l-20,30l20,30h15v105h-15l-20,30l20,30c49.626,0,90-40.374,90-90v-45
		C329.106,183.874,288.732,143.5,239.106,143.5z"/>
</g>
<path style="fill:#FFB037;" d="M224.106,308.5v-105h15v-60c-49.626,0-90,40.374-90,90v45c0,49.626,40.374,90,90,90v-60H224.106z"/>
<g>
</g>
<g>
</g>
<g>
</g>
<g>
</g>
<g>
</g>
<g>
</g>
<g>
</g>
<g>
</g>
<g>
</g>
<g>
</g>
<g>
</g>
<g>
</g>
<g>
</g>
<g>
</g>
<g>
</g>
</svg>
