<svg height="512" viewBox="0 0 128 128" width="512" xmlns="http://www.w3.org/2000/svg"><g><path d="m104.343 10.841v9.472h-12v-9.472h-56.686v9.472h-12v-9.472h-4.157a4 4 0 0 0 -4 4v107.492a4 4 0 0 0 4 4h89a4 4 0 0 0 4-4v-107.492a4 4 0 0 0 -4-4z" fill="#66666d"/><path d="m29 59.128h70v37.954h-70z" fill="#f9f9f9"/><path d="m37 67.128h54v6.901h-54z" fill="#00e4ef"/><path d="m42.263 50.076h56.737v9.052h-56.737z" fill="#fff16b"/><path d="m37 40.7h5.263a0 0 0 0 1 0 0v18.428a0 0 0 0 1 0 0h-13.263a0 0 0 0 1 0 0v-10.428a8 8 0 0 1 8-8z" fill="#ff7d47"/><path d="m96.009 31.079a5.391 5.391 0 0 0 -6.6-3.812l-47.146 13.433v9.371l54.694-15.456z" fill="#fff16b"/><path d="m35.632 54.014a1.751 1.751 0 0 1 -1.75-1.75v-4.7a1.75 1.75 0 0 1 3.5 0v4.7a1.751 1.751 0 0 1 -1.75 1.75z" fill="#f9f9f9"/><path d="m91 82.956h-39.5a1.75 1.75 0 0 1 0-3.5h39.5a1.75 1.75 0 0 1 0 3.5z" fill="#eceae7"/><path d="m91 90.831h-39.5a1.75 1.75 0 0 1 0-3.5h39.5a1.75 1.75 0 0 1 0 3.5z" fill="#eceae7"/><path d="m37 80.205h8.876v8.876h-8.876z" fill="#00e4ef"/><g fill="#444156"><path d="m23.657 1.833h12v18.479h-12z"/><path d="m92.343 1.833h12v18.479h-12z" transform="matrix(-1 0 0 -1 196.686 22.146)"/><path d="m99 107.333h-70a1.75 1.75 0 0 1 0-3.5h70a1.75 1.75 0 0 1 0 3.5z"/><path d="m89.594 115.835h-51.188a1.75 1.75 0 1 1 0-3.5h51.188a1.75 1.75 0 0 1 0 3.5z"/></g></g></svg>