<svg height="511pt" viewBox="0 0 511.99965 511" width="511pt" xmlns="http://www.w3.org/2000/svg"><path d="m238.117188 17.722656c9.410156-9.632812 26.351562-9.632812 35.761718 0l220.996094 227.304688c9.648438 9.871094 9.460938 25.699218-.410156 35.347656-9.867188 9.644531-25.699219 9.480469-35.351563-.40625-13.371093-13.679688-197.425781-201.882812-203.113281-207.699219-7.449219 7.617188-193.175781 197.53125-203.117188 207.699219-9.660156 9.878906-25.480468 10.066406-35.351562.40625-9.867188-9.648438-10.058594-25.476562-.410156-35.347656 174.390625-179.363282 212.175781-218.230469 220.996094-227.304688zm0 0" fill="#ff641a"/><path d="m455.996094 462.492188c11.050781 0 20 8.953124 20 20 0 11.039062-8.960938 20-20 20h-399.992188c-11.050781 0-20-8.949219-20-20 0-11.039063 8.957032-20 20-20zm0 0" fill="#7c8388"/><path d="m256 72.269531 180.054688 184.117188-.058594.0625v206.042969h-359.996094v-206.042969l-.058594-.0625zm0 0" fill="#e0f4ff"/><path d="m295.996094 236.496094c-9.675782 0-70.253906 0-79.996094 0 0 11.050781-8.949219 20-20 20v56.75c0 37.769531 24.167969 71.308594 60 83.25 35.828125-11.941406 59.996094-45.480469 59.996094-83.25v-56.75c-11.046875 0-20-8.949219-20-20zm0 0" fill="#64e1dc"/><path d="m136 50.5v72.257812l-60 61.710938v-133.96875zm0 0" fill="#7c8388"/><path d="m252.910156 406.003906c.128906.042969.261719.078125.398438.113282.160156.046874.324218.089843.488281.128906.128906.027344.257813.054687.386719.078125.1875.035156.378906.0625.566406.085937.109375.011719.21875.03125.328125.039063.308594.027343.613281.046875.921875.046875.304688 0 .613281-.019532.917969-.046875.109375-.007813.21875-.027344.328125-.039063.191406-.023437.378906-.050781.566406-.085937.128906-.023438.261719-.050781.386719-.078125.164062-.039063.328125-.082032.492187-.128906.132813-.035157.265625-.070313.394532-.113282.027343-.007812.050781-.011718.074218-.019531 39.976563-13.324219 66.835938-50.589844 66.835938-92.738281v-56.746094c0-5.523438-4.476563-10-10-10-5.511719 0-10-4.488281-10-10 0-5.523438-4.476563-10-10-10h-79.996094c-5.523438 0-10 4.476562-10 10 0 5.511719-4.488281 10-10 10-5.523438 0-10 4.476562-10 10v56.746094c0 42.148437 26.859375 79.414062 66.835938 92.738281.027343.007813.050781.011719.074218.019531zm53.085938-141.21875v48.460938c0 28.652344-15.609375 54.460937-39.996094 67.972656v-134.722656h21.710938c3.019531 8.511718 9.777343 15.269531 18.285156 18.289062zm-99.996094 48.460938v-48.460938c8.511719-3.019531 15.269531-9.777344 18.285156-18.289062h21.714844v134.722656c-24.386719-13.511719-40-39.320312-40-67.972656zm0 0"/><path d="m60.03125 286.957031 5.972656-6.101562v48.640625c0 5.523437 4.476563 10 10 10 5.519532 0 10-4.476563 10-10v-69.09375l169.996094-173.828125 169.996094 173.828125v192.09375h-339.992188v-43c0-5.523438-4.480468-10-10-10-5.523437 0-10 4.476562-10 10v43h-10c-16.574218 0-30 13.421875-30 30 0 16.539062 13.457032 29.996094 30 29.996094h399.992188c16.574218 0 30-13.421876 30-29.996094 0-16.542969-13.457032-30-30-30h-10v-171.640625l5.964844 6.097656c13.597656 13.929687 35.75 14.007813 49.496093.574219 13.855469-13.546875 14.054688-35.695313.589844-49.46875l-221.015625-227.324219c-6.355469-6.503906-15.480469-10.234375-25.03125-10.234375-9.554688 0-18.675781 3.730469-25.050781 10.25l-84.949219 87.378906v-47.628906c0-5.523438-4.476562-10-10-10h-59.996094c-5.523437 0-10 4.476562-10 10v129.910156l-56.03125 57.625c-13.511718 13.820313-13.265625 35.964844.566406 49.488282 13.820313 13.523437 35.964844 13.273437 49.492188-.566407zm405.964844 195.535157c0 5.523437-4.480469 10-10 10h-399.992188c-5.515625 0-10-4.484376-10-10 0-5.519532 4.476563-10 10-10h399.992188c5.511718 0 10 4.488281 10 10zm-379.996094-421.992188h40v58.199219l-40 41.140625zm-61.707031 191.5c3.753906-3.863281 217.792969-223.984375 220.976562-227.289062 2.617188-2.675782 6.527344-4.210938 10.730469-4.210938 4.199219 0 8.109375 1.535156 10.707031 4.191406l221.015625 227.328125c5.789063 5.917969 5.679688 15.410157-.25 21.207031-5.902344 5.769532-15.390625 5.710938-21.207031-.25l-203.117187-207.695312c-1.882813-1.925781-4.457032-3.007812-7.148438-3.007812s-5.269531 1.082031-7.148438 3.007812l-203.121093 207.695312c-5.878907 6.011719-15.363281 5.96875-21.207031.25-5.894532-5.761718-6.082032-15.242187-.230469-21.226562zm0 0"/><path d="m76 379.496094c5.523438 0 10-4.480469 10-10 0-5.519532-4.476562-10-10-10-5.519531 0-9.996094 4.480468-9.996094 10 0 5.519531 4.476563 10 9.996094 10zm0 0"/></svg>