<svg enable-background="new 0 0 24 24" height="512" viewBox="0 0 24 24" width="512" xmlns="http://www.w3.org/2000/svg"><path d="m8.75 3c0-1.654 1.346-3 3-3h10c.329 0 .637.162.824.433s.228.617.11.924l-7.25 19c-.147.387-.519.643-.934.643h-2.75c-1.654 0-3-1.346-3-3z" fill="#2196f3"/><path d="m14.75 4v18c0 .69.56 1.25 1.25 1.25.14 0 .27-.02.4-.06l6-2c.49-.17.85-.64.85-1.19v-18c0-.69-.56-1.25-1.25-1.25-.14 0-.27.02-.4.06l-6 2c-.49.17-.85.64-.85 1.19z" fill="#64b5f6"/><path d="m14 4c0-.855.544-1.618 1.354-1.898l6.008-2.003c1.357-.417 2.638.584 2.638 1.901v18c0 .855-.544 1.618-1.354 1.898l-6.008 2.003c-.221.068-.424.099-.638.099-1.103 0-2-.897-2-2m8-20.5c-.063 0-.119.008-.179.027l-5.983 1.995c-.196.067-.338.265-.338.478v18c0 .339.355.572.679.473l5.983-1.995c.196-.067.338-.265.338-.478v-18c0-.276-.224-.5-.5-.5z" fill="#64b5f6"/><path d="m10.25 11.25h-9.5c-.414 0-.75-.336-.75-.75s.336-.75.75-.75h9.5c.414 0 .75.336.75.75s-.336.75-.75.75z"/><path d="m6.5 15c-.192 0-.384-.073-.53-.22-.293-.293-.293-.768 0-1.061l3.22-3.22-3.22-3.219c-.293-.293-.293-.768 0-1.061s.768-.293 1.061 0l3.75 3.75c.293.293.293.768 0 1.061l-3.75 3.75c-.147.147-.339.22-.531.22z"/><path d="m16 24c-1.103 0-2-.897-2-2v-18c0-.855.544-1.618 1.354-1.899l6.008-2.003c1.344-.412 2.638.585 2.638 1.902v18c0 .854-.544 1.616-1.353 1.898l-6.01 2.004c-.219.068-.422.098-.637.098zm6-22.5c-.065 0-.12.008-.179.026l-5.983 1.995c-.196.068-.338.266-.338.479v18c0 .341.37.571.679.474l5.983-1.995c.195-.068.338-.266.338-.479v-18c0-.275-.224-.5-.5-.5z"/><path d="m8.75 5c-.414 0-.75-.336-.75-.75v-1.5c0-1.517 1.233-2.75 2.75-2.75h11.25c.414 0 .75.336.75.75s-.336.75-.75.75h-11.25c-.689 0-1.25.561-1.25 1.25v1.5c0 .414-.336.75-.75.75z"/><path d="m14.75 21h-4c-1.517 0-2.75-1.233-2.75-2.75v-1.5c0-.414.336-.75.75-.75s.75.336.75.75v1.5c0 .689.561 1.25 1.25 1.25h4c.414 0 .75.336.75.75s-.336.75-.75.75z"/></svg>