<svg id="Capa_1" enable-background="new 0 0 512 512" height="512" viewBox="0 0 512 512" width="512" xmlns="http://www.w3.org/2000/svg"><g><g><path d="m313.73 103.298-31.295-11.736c-6.257-2.347-10.403-8.328-10.403-15.011v-28.97h-32.065v28.97c0 6.683-4.146 12.665-10.403 15.011l-31.295 11.736c-13.303 4.989-21.737 18.136-20.724 32.308l3.558 49.816c2.23 31.211 18.447 52.916 37.314 64.293l4.474 57.096c.683 8.714-1.022 17.449-4.931 25.267l-10.058 20.116 16.029 16.032h64.132l16.033-16.032-10.058-20.116c-3.909-7.818-5.614-16.553-4.931-25.267l4.474-57.096c18.867-11.378 35.085-33.083 37.314-64.293l3.558-49.816c1.014-14.172-7.42-27.32-20.723-32.308z" fill="#ffe07d"/><path d="m294.039 332.077c-1.9-3.8-3.257-7.822-4.095-11.948h-67.889c-.838 4.126-2.194 8.148-4.095 11.948l-10.058 20.116 16.029 16.032h64.132l16.033-16.032z" fill="#ffd064"/><path d="m209.907 141.102-26.481-26.262c-4.184 5.91-6.424 13.167-5.881 20.766l3.558 49.816c2.228 31.187 18.452 52.742 37.301 64.122z" fill="#ffd064"/><path d="m328.573 114.84-26.481 26.262-8.497 108.442c18.849-11.38 35.073-32.935 37.301-64.122l3.558-49.816c.543-7.6-1.697-14.856-5.881-20.766z" fill="#fff0af"/><path d="m256 87.661c6.411 0 12.519-1.28 18.113-3.557-1.243-2.295-2.08-4.826-2.08-7.553v-28.97h-32.065v28.97c0 2.728-.838 5.259-2.08 7.553 5.593 2.277 11.701 3.557 18.112 3.557z" fill="#ffd064"/><path d="m304.097 352.194h-96.194c-4.427 0-8.016 3.589-8.016 8.016v40.081h112.226v-40.081c0-4.428-3.589-8.016-8.016-8.016z" fill="#ffe07d"/><path d="m223.935 400.29h-24.048v-40.08c0-4.427 3.589-8.016 8.016-8.016h16.032z" fill="#ffd064"/><path d="m320.129 384.258h-128.258c-4.427 0-8.016 3.589-8.016 8.016v96.194h144.29v-96.194c0-4.427-3.589-8.016-8.016-8.016z" fill="#6f6571"/><path d="m352.194 472.435h-144.29v-88.177h-16.032c-4.427 0-8.016 3.589-8.016 8.016v80.161h-24.048c-4.427 0-8.016 3.589-8.016 8.016v16.032c0 4.427 3.589 8.016 8.016 8.016h192.387c4.427 0 8.016-3.589 8.016-8.016v-16.032c-.001-4.427-3.59-8.016-8.017-8.016z" fill="#5d5360"/><path d="m264.016 7.5h-16.032c-8.854 0-16.032 7.178-16.032 16.032v16.032c0 13.282 10.767 24.048 24.048 24.048 13.282 0 24.048-10.767 24.048-24.048v-16.032c0-8.854-7.177-16.032-16.032-16.032z" fill="#ffe07d"/><path d="m175.839 472.435h-16.032c-4.427 0-8.016 3.589-8.016 8.016v16.032c0 4.427 3.589 8.016 8.016 8.016h16.032z" fill="#4b3f4e"/></g><g><path d="m352.193 464.936h-16.548v-72.661c0-8.556-6.96-15.516-15.516-15.516h-.516v-16.549c0-6.779-4.377-12.542-10.447-14.649l-8.418-16.838c-3.299-6.598-4.738-13.972-4.162-21.327l4.183-53.381c.411-.206.811-.443 1.19-.731 21.243-16.164 34.518-40.704 36.419-67.329l1.257-17.598c.295-4.132-2.815-7.72-6.946-8.015-4.13-.292-7.72 2.815-8.016 6.947l-1.257 17.599c-1.286 18.007-8.783 34.871-20.979 47.836l7.134-91.035c.324-4.129-2.762-7.74-6.891-8.063-4.122-.323-7.739 2.761-8.063 6.891l-12.985 165.709c-.167 2.137-.203 4.275-.124 6.404h-51.014c.079-2.129.044-4.267-.124-6.404l-12.985-165.709c-.324-4.13-3.938-7.217-8.063-6.891-4.129.323-7.215 3.934-6.891 8.063l7.134 91.035c-12.196-12.965-19.693-29.829-20.979-47.836l-3.559-49.816c-.77-10.779 5.759-20.957 15.877-24.751l31.295-11.735c9.133-3.425 15.269-12.28 15.269-22.034v-6.62c2.716.764 5.575 1.182 8.532 1.182s5.816-.418 8.532-1.182v6.62c0 9.754 6.136 18.609 15.27 22.034l31.295 11.735c10.118 3.794 16.647 13.972 15.877 24.751-.295 4.132 2.815 7.72 6.947 8.015.182.013.362.019.542.019 3.898 0 7.191-3.016 7.473-6.966 1.24-17.361-9.276-33.753-25.572-39.865l-31.295-11.735c-3.312-1.242-5.537-4.452-5.537-7.989v-16.004c4.981-5.58 8.016-12.932 8.016-20.983v-16.032c0-12.975-10.556-23.532-23.532-23.532h-16.032c-12.976 0-23.532 10.557-23.532 23.532v16.032c0 8.051 3.035 15.403 8.016 20.983v16.004c0 3.537-2.225 6.747-5.536 7.989l-31.295 11.735c-16.296 6.111-26.812 22.504-25.572 39.865l3.559 49.816c1.901 26.625 15.176 51.165 36.419 67.329.379.288.779.525 1.19.731l4.183 53.381c.576 7.355-.863 14.729-4.163 21.327l-8.418 16.837c-6.071 2.107-10.447 7.87-10.447 14.649v16.548h-.516c-8.556 0-15.516 6.96-15.516 15.516v72.661h-16.548c-8.556 0-15.516 6.96-15.516 15.516v24.049c0 4.142 3.358 7.5 7.5 7.5h208.419c4.142 0 7.5-3.358 7.5-7.5v-24.048c-.002-8.556-6.962-15.516-15.518-15.516zm-112.741-441.404c0-4.705 3.828-8.532 8.532-8.532h16.032c4.705 0 8.532 3.828 8.532 8.532v16.032c0 9.125-7.423 16.548-16.548 16.548s-16.548-7.424-16.548-16.548zm44.7 304.097c.86 2.667 1.916 5.278 3.178 7.802l4.631 9.262h-71.923l4.63-9.262c1.263-2.525 2.319-5.135 3.179-7.803h56.305zm-92.797 64.645c0-.285.231-.516.516-.516h24.049c4.142 0 7.5-3.358 7.5-7.5s-3.358-7.5-7.5-7.5h-8.533v-16.548c0-.282.228-.51.508-.514h.002c.008 0 .016-.002.025-.002h96.155c.008 0 .017.002.025.002h.002c.281.004.508.232.508.514v16.548h-56.629c-4.142 0-7.5 3.358-7.5 7.5s3.358 7.5 7.5 7.5h72.146c.285 0 .516.231.516.516v72.661h-129.29zm161.354 104.726h-193.418v-16.548c0-.285.231-.516.516-.516h192.387c.285 0 .516.231.516.516v16.548z"/><path d="m239.968 152.306c-4.142 0-7.5 3.358-7.5 7.5s3.358 7.5 7.5 7.5h32.064c4.142 0 7.5-3.358 7.5-7.5s-3.358-7.5-7.5-7.5z"/></g></g></svg>