<svg id="Layer_1" enable-background="new 0 0 512 512" height="512" viewBox="0 0 512 512" width="512" xmlns="http://www.w3.org/2000/svg"><g><path d="m48.2 497v-321.333c0-97.022 78.502-175.667 175.667-175.667h64.267c97.007 0 175.666 78.488 175.666 175.667v321.333z" fill="#8b3e2a"/><path d="m463.8 175.667c0-97.179-78.659-175.667-175.667-175.667h-32.133v497h207.8z" fill="#551f09"/><path d="m364.713 338.899c-2.038-.987-4.273-1.5-6.537-1.5h-204.352c-2.264 0-4.499.513-6.537 1.5-44.482 21.539-99.087 74.302-99.087 158.101 0 8.284 6.716 15 15 15h385.6c8.284 0 15-6.716 15-15 0-83.799-54.605-136.562-99.087-158.101z" fill="#d0e36d"/><path d="m463.8 497c0-83.799-54.604-136.562-99.087-158.101-2.038-.987-4.273-1.5-6.537-1.5h-102.176v174.601h192.8c8.284 0 15-6.716 15-15z" fill="#80d385"/><path d="m335.267 447.733h-64.267c-8.284 0-15-6.716-15-15v-80.333c0-8.284 6.716-15 15-15h64.267c8.284 0 15 6.716 15 15v80.333c0 8.285-6.716 15-15 15z" fill="#ff0052"/><path d="m352.4 367.4h-192.8c-25.989 0-47.133-21.144-47.133-47.133s21.144-47.133 47.133-47.133h192.8c25.989 0 47.133 21.144 47.133 47.133s-21.144 47.133-47.133 47.133z" fill="#ffa0a5"/><path d="m399.533 320.267c0-25.989-21.144-47.133-47.133-47.133h-96.4v94.266h96.4c25.989 0 47.133-21.144 47.133-47.133z" fill="#ff647c"/><path d="m127.467 222.8h-32.134c-25.989 0-47.133-21.144-47.133-47.133s21.144-47.133 47.133-47.133h32.133c8.284 0 15 6.716 15 15v64.266c.001 8.284-6.715 15-14.999 15z" fill="#f7a996"/><path d="m416.667 222.8h-32.133c-8.284 0-15-6.716-15-15v-64.267c0-8.284 6.716-15 15-15h32.133c25.989 0 47.133 21.144 47.133 47.133s-21.144 47.134-47.133 47.134z" fill="#e67e74"/><path d="m384.533 128.533c-70.987 0-128.533-57.546-128.533-128.533 0 70.987-57.546 128.533-128.533 128.533-8.284 0-15 0-15 0v63.2c0 61.517 49.768 111.4 111.4 111.4h64.267c61.632 0 111.4-49.883 111.4-111.4v-63.2c-.001 0-6.717 0-15.001 0z" fill="#ffd1b9"/><path d="m399.533 191.733v-63.2s-6.716 0-15 0c-70.987 0-128.533-57.546-128.533-128.533v303.133h32.133c61.632 0 111.4-49.882 111.4-111.4z" fill="#f7a996"/><path d="m256 230.833c-12.052 0-23.85-3.95-33.219-11.124-6.578-5.036-7.828-14.451-2.792-21.029s14.45-7.829 21.029-2.792c4.164 3.188 9.484 4.944 14.981 4.944s10.817-1.756 14.981-4.944c6.579-5.036 15.994-3.786 21.029 2.792 5.036 6.578 3.786 15.993-2.792 21.029-9.367 7.174-21.165 11.124-33.217 11.124z" fill="#f7a996"/><path d="m292.01 198.681c-5.035-6.577-14.45-7.828-21.029-2.792-4.164 3.188-9.484 4.944-14.981 4.944v30c12.052 0 23.85-3.95 33.219-11.124 6.577-5.035 7.827-14.45 2.791-21.028z" fill="#e67e74"/></g></svg>