<?xml version="1.0" encoding="iso-8859-1"?>
<!-- Generator: Adobe Illustrator 19.0.0, SVG Export Plug-In . SVG Version: 6.00 Build 0)  -->
<svg version="1.1" id="Capa_1" xmlns="http://www.w3.org/2000/svg" xmlns:xlink="http://www.w3.org/1999/xlink" x="0px" y="0px"
	 viewBox="0 0 511.998 511.998" style="enable-background:new 0 0 511.998 511.998;" xml:space="preserve">
<polygon style="fill:#012231;" points="147.304,427.227 87.652,330.991 56.302,330.991 56.302,481.994 86.302,481.994 
	86.302,385.757 145.952,481.994 177.304,481.994 177.304,330.991 147.304,330.991 "/>
<path d="M402.309,451.993c-12.153,0-23.579-4.732-32.174-13.326c-8.594-8.594-13.326-20.02-13.326-32.175
	c0-12.153,4.732-23.58,13.326-32.174c8.594-8.593,20.021-13.327,32.175-13.327s23.579,4.733,32.174,13.327l21.213-21.213
	c-14.26-14.26-33.22-22.113-53.387-22.114c-20.166,0-39.129,7.854-53.388,22.114c-14.261,14.26-22.113,33.22-22.113,53.387
	s7.853,39.127,22.113,53.388c14.26,14.26,33.22,22.113,53.387,22.113s39.128-7.853,53.388-22.113l-21.213-21.214
	C425.889,447.26,414.462,451.993,402.309,451.993z"/>
<path style="fill:#D1DEE4;" d="M509.746,218.019c-4.556-17.003-15.46-31.215-30.706-40.017c-6.982-4.031-14.495-6.69-22.218-7.968
	c8.778-23.458,3.768-50.946-15.067-69.781c-18.844-18.845-46.352-23.85-69.818-15.052c-4.115-24.721-22.202-46.041-47.945-52.938
	c-5.593-1.499-11.342-2.258-17.089-2.258c-20.16,0-38.663,9.232-50.902,24.13l-50.001,123.427L256,300.99H446.11
	c5.729-0.004,11.461-0.764,17.035-2.258C498.245,289.327,519.15,253.119,509.746,218.019z"/>
<path style="fill:#EFF6F9;" d="M188.008,32.263c-25.743,6.897-43.832,28.217-47.946,52.938
	c-23.466-8.797-50.974-3.791-69.818,15.052c-18.835,18.834-23.845,46.322-15.067,69.78c-7.723,1.278-15.236,3.936-22.218,7.968
	c-15.245,8.801-26.15,23.012-30.706,40.017c-9.404,35.1,11.5,71.307,46.6,80.712c5.575,1.494,11.307,2.254,17.048,2.258h190.1
	V54.136C240.072,34.783,213.745,25.364,188.008,32.263z"/>
<path style="fill:#8062A7;" d="M271.019,95.925c0.003-3.119,0.419-6.247,1.236-9.297c4.2-15.674,18.446-26.623,34.646-26.623
	c3.126,0,6.263,0.416,9.324,1.236c19.12,5.124,30.51,24.848,25.385,43.97c-0.817,3.053-2.021,5.969-3.571,8.659l-67.034,116.135
	L271.019,95.925z"/>
<path style="fill:#FFD237;" d="M65.911,270.989c-3.116-0.002-6.243-0.418-9.295-1.236c-19.12-5.124-30.509-24.848-25.385-43.97
	c2.481-9.262,8.422-17.004,16.727-21.799c8.306-4.794,17.979-6.068,27.243-3.586c3.05,0.817,5.967,2.021,8.668,3.578
	c0.021-0.036,116.125,67.013,116.125,67.013L65.911,270.989L65.911,270.989z"/>
<path style="fill:#FF6E37;" d="M98.889,177.959c-2.698-1.561-5.199-3.485-7.433-5.718c-13.997-13.998-13.997-36.774,0-50.772
	c13.998-13.998,36.773-13.997,50.772,0c2.235,2.235,4.159,4.736,5.719,7.432c0.035-0.02,67.074,116.124,67.074,116.124
	L98.889,177.959z"/>
<path style="fill:#FF0021;" d="M173.963,113.879c-1.556-2.699-2.759-5.615-3.576-8.668c-5.124-19.121,6.265-38.846,25.387-43.97
	c19.121-5.123,38.845,6.266,43.969,25.386c0.817,3.05,1.233,6.178,1.236,9.297c0.041,0,0.041,134.128,0.041,134.128L173.963,113.879
	z"/>
<path style="fill:#009AD2;" d="M364.016,128.88c1.595-2.676,3.519-5.176,5.753-7.411c13.998-13.998,36.774-13.997,50.772,0
	c13.997,13.998,13.997,36.774,0.001,50.772c-2.234,2.234-4.735,4.158-7.424,5.713l-116.142,67.071L364.016,128.88z"/>
<path style="fill:#4FA811;" d="M455.381,269.753c-3.051,0.817-6.178,1.233-9.282,1.236H312.004l116.104-67.049
	c2.722-1.521,5.639-2.725,8.69-3.542c9.263-2.481,18.938-1.208,27.242,3.586c8.305,4.795,14.245,12.537,16.727,21.799
	C485.89,244.905,474.502,264.629,455.381,269.753z"/>
<path style="fill:#D1DEE4;" d="M308.215,232.982l-32.681-122.017l25.517-0.054l-0.063-30.001l-44.99,0.095l-10,165.959l10,54.025
	c29.802,0,54.046-24.235,54.046-54.025C310.045,242.235,309.431,237.534,308.215,232.982z"/>
<path style="fill:#EFF6F9;" d="M244.48,81.031L203.78,232.994c-1.213,4.541-1.827,9.241-1.827,13.971
	c0,29.79,24.244,54.025,54.046,54.025V81.006L244.48,81.031z"/>
<path d="M300.891,401.072c4.699-7.133,7.437-15.668,7.437-24.83c0-24.951-20.299-45.251-45.251-45.251H256l-10,15l10,15h7.077
	c8.409,0,15.25,6.841,15.25,15.25c0,8.409-6.841,15.25-15.25,15.25H256l-10,15l10,15h17.077c8.409,0,15.25,6.841,15.25,15.25
	c0,8.409-6.841,15.25-15.25,15.25H256l-10,14.51l10,15.49h17.077c24.951,0,45.251-20.299,45.251-45.251
	C318.327,422.268,311.497,409.36,300.891,401.072z"/>
<polygon style="fill:#012231;" points="227.305,451.993 227.305,421.492 255.999,421.492 255.999,391.492 227.305,391.492 
	227.305,360.991 255.999,360.991 255.999,330.991 197.305,330.991 197.305,481.994 255.999,481.994 255.999,451.993 "/>
<g>
</g>
<g>
</g>
<g>
</g>
<g>
</g>
<g>
</g>
<g>
</g>
<g>
</g>
<g>
</g>
<g>
</g>
<g>
</g>
<g>
</g>
<g>
</g>
<g>
</g>
<g>
</g>
<g>
</g>
</svg>
